<svg width="32" height="32" viewBox="0 0 32 32" fill="none" xmlns="http://www.w3.org/2000/svg">
<rect x="15.6622" y="2.7957" width="0.656401" height="26.4194" rx="0.3282" fill="white" stroke="white" stroke-width="0.1"/>
<rect x="29.2316" y="15.669" width="0.655469" height="26.4636" rx="0.327734" transform="rotate(90 29.2316 15.669)" fill="white" stroke="white" stroke-width="0.1"/>
<rect y="-0.0706514" width="0.655935" height="26.4415" rx="0.327967" transform="matrix(0.707699 0.706514 -0.707699 0.706514 25.074 6.47585)" fill="white" stroke="white" stroke-width="0.1"/>
<rect x="0.0707699" width="0.655935" height="26.4415" rx="0.327967" transform="matrix(-0.707699 0.706514 -0.707699 -0.706514 25.637 25.0564)" fill="white" stroke="white" stroke-width="0.1"/>
<path d="M26.5822 5.52317C26.2633 5.18794 25.7326 5.17429 25.3968 5.49267L23.8918 6.91975C23.5561 7.23813 23.5424 7.76798 23.8614 8.10321C24.1803 8.43843 24.7111 8.45209 25.0468 8.13371L25.7993 7.42017L26.5518 6.70662C26.8875 6.38824 26.9012 5.85839 26.5822 5.52317Z" fill="white" stroke="white" stroke-width="0.1"/>
<path d="M16.0099 0.95C15.5468 0.95 15.1714 1.32541 15.1714 1.7885V3.85791C15.1714 4.32101 15.5468 4.69642 16.0099 4.69642C16.473 4.69642 16.8484 4.32101 16.8484 3.85791V2.82321V1.7885C16.8484 1.32541 16.473 0.95 16.0099 0.95Z" fill="white" stroke="white" stroke-width="0.1"/>
<path d="M16.0099 27.3035C15.5468 27.3035 15.1714 27.6789 15.1714 28.142V30.2114C15.1714 30.6745 15.5468 31.0499 16.0099 31.0499C16.473 31.0499 16.8484 30.6745 16.8484 30.2114V29.1767V28.142C16.8484 27.6789 16.473 27.3035 16.0099 27.3035Z" fill="white" stroke="white" stroke-width="0.1"/>
<path d="M8.12216 23.885C7.80322 23.5498 7.27248 23.5361 6.93672 23.8545L5.43174 25.2816C5.09598 25.5999 5.08235 26.1298 5.40129 26.465C5.72023 26.8002 6.25097 26.8139 6.58673 26.4955L7.33922 25.782L8.09171 25.0684C8.42747 24.7501 8.4411 24.2202 8.12216 23.885Z" fill="white" stroke="white" stroke-width="0.1"/>
<rect x="31.05" y="15.1636" width="1.67436" height="3.75253" rx="0.837182" transform="rotate(90 31.05 15.1636)" fill="white" stroke="white" stroke-width="0.1"/>
<rect x="4.70247" y="15.1636" width="1.67436" height="3.75253" rx="0.837182" transform="rotate(90 4.70247 15.1636)" fill="white" stroke="white" stroke-width="0.1"/>
<rect x="0.0707699" width="1.67569" height="3.74947" rx="0.837843" transform="matrix(-0.707699 0.706514 -0.707699 -0.706514 8.74671 7.48027)" fill="white" stroke="white" stroke-width="0.1"/>
<rect x="0.0707699" width="1.67569" height="3.74947" rx="0.837843" transform="matrix(-0.707699 0.706514 -0.707699 -0.706514 27.1731 25.8768)" fill="white" stroke="white" stroke-width="0.1"/>
<path d="M16.75 16.0002C16.75 16.4143 16.4142 16.7501 16 16.7501C15.5858 16.7501 15.25 16.4143 15.25 16.0002C15.25 15.586 15.5858 15.2502 16 15.2502C16.4142 15.2502 16.75 15.586 16.75 16.0002Z" stroke="white"/>
<path d="M20.9331 15.9989C20.9331 18.7141 18.7319 20.9153 16.0165 20.9153C13.3011 20.9153 11.0999 18.7141 11.0999 15.9989C11.0999 13.2837 13.3011 11.0825 16.0165 11.0825C18.7319 11.0825 20.9331 13.2837 20.9331 15.9989Z" stroke="white"/>
<path d="M24.4503 16.0077C24.4503 20.6788 20.6635 24.4656 15.9921 24.4656C11.3207 24.4656 7.53381 20.6788 7.53381 16.0077C7.53381 11.3365 11.3207 7.5498 15.9921 7.5498C20.6635 7.5498 24.4503 11.3365 24.4503 16.0077Z" stroke="white"/>
</svg>
